<svg version="1.0" xmlns="http://www.w3.org/2000/svg"
 width="150.000000pt" height="150.000000pt" viewBox="0 0 150.000000 150.000000"
 preserveAspectRatio="xMidYMid meet">
<metadata>
Created by potrace 1.15, written by Peter Selinger 2001-2017
</metadata>
<g transform="translate(0.000000,150.000000) scale(0.100000,-0.100000)"
fill="#fff234" stroke="none">
<path d="M1050 1480 c-11 -11 -20 -29 -20 -40 0 -32 -47 -45 -88 -26 -18 9
-35 16 -38 16 -13 0 -94 -85 -94 -99 0 -9 7 -27 16 -39 22 -31 3 -77 -34 -87
-44 -11 -52 -24 -52 -86 0 -48 4 -60 22 -73 12 -9 30 -16 39 -16 9 0 22 -13
29 -29 10 -25 9 -34 -4 -53 -25 -35 -19 -57 23 -99 42 -42 64 -48 99 -23 19
13 28 14 53 4 16 -7 29 -20 29 -29 0 -9 7 -27 16 -39 13 -18 25 -22 73 -22 62
0 75 8 86 52 10 37 56 56 87 34 12 -9 30 -16 39 -16 14 0 99 81 99 94 0 3 -7
20 -16 38 -18 40 -6 88 24 88 9 0 28 7 40 16 18 12 22 25 22 65 0 64 -12 86
-51 94 -41 9 -57 49 -35 87 22 36 21 42 -15 83 -46 52 -63 59 -102 40 -46 -21
-83 -7 -92 34 -8 38 -30 51 -89 51 -33 0 -52 -6 -66 -20z m98 -79 c8 -21 24
-35 57 -50 56 -25 74 -26 102 -6 18 13 22 12 36 -3 13 -15 14 -20 1 -36 -19
-27 -18 -45 7 -101 15 -33 29 -49 50 -57 41 -14 40 -50 -2 -63 -26 -8 -35 -20
-52 -65 -18 -50 -19 -56 -5 -81 14 -24 14 -28 0 -42 -14 -15 -18 -15 -43 0
-26 15 -30 15 -85 -9 -49 -21 -60 -30 -67 -57 -6 -26 -12 -32 -30 -29 -14 2
-23 11 -25 24 -4 27 -25 45 -81 69 -41 18 -45 18 -74 2 -26 -15 -32 -16 -44
-4 -12 12 -11 18 4 44 16 29 16 33 -2 74 -24 56 -42 77 -69 81 -13 2 -22 11
-24 25 -3 18 3 24 29 30 27 7 36 18 57 67 24 55 24 59 9 85 -15 25 -15 29 0
43 14 14 18 14 42 0 25 -14 31 -13 81 5 45 17 57 26 65 52 13 42 49 43 63 2z"/>
<path d="M1049 1235 c-40 -21 -63 -64 -63 -117 -2 -116 138 -179 223 -99 61
57 59 145 -5 200 -28 25 -43 31 -82 31 -26 -1 -59 -7 -73 -15z m121 -65 c64
-64 -26 -167 -95 -107 -54 46 -27 127 42 127 20 0 41 -8 53 -20z"/>
<path d="M283 966 c-56 -26 -68 -46 -57 -101 6 -32 3 -40 -26 -70 -30 -31 -36
-33 -80 -28 -59 7 -77 -9 -105 -90 -22 -65 -18 -79 31 -112 27 -17 30 -25 30
-69 0 -45 -3 -51 -33 -68 -44 -27 -50 -56 -23 -122 30 -76 48 -90 103 -82 41
6 47 4 76 -25 29 -29 31 -35 25 -76 -8 -55 6 -73 82 -103 66 -27 95 -21 121
23 18 30 24 33 69 34 44 0 51 -3 69 -30 33 -49 48 -54 107 -33 94 32 101 40
95 101 -5 50 -3 55 28 85 30 29 38 32 70 26 56 -11 75 0 101 60 34 78 32 109
-11 136 -32 21 -35 27 -35 75 0 47 3 53 30 70 17 10 33 28 37 41 7 29 -9 85
-38 131 -20 33 -22 34 -74 28 -49 -5 -55 -3 -83 26 -28 29 -30 36 -25 84 5 50
4 52 -28 73 -82 50 -148 50 -174 1 -13 -25 -21 -29 -65 -33 -48 -3 -51 -1 -72
32 -29 45 -72 49 -145 16z m101 -75 c19 -37 32 -41 121 -41 67 0 75 2 94 26
11 14 21 30 23 36 3 8 15 7 42 -2 l38 -12 -7 -45 c-7 -45 -6 -46 52 -105 58
-59 58 -59 104 -53 l47 7 12 -38 c9 -27 10 -39 2 -42 -6 -2 -22 -12 -36 -23
-24 -19 -26 -27 -26 -100 0 -82 6 -97 55 -124 16 -10 17 -14 4 -48 l-13 -37
-48 6 c-47 7 -48 6 -104 -50 -56 -56 -56 -56 -49 -103 6 -47 6 -48 -27 -61
-32 -12 -34 -11 -61 23 -29 35 -29 35 -112 35 -83 0 -84 0 -106 -33 -12 -17
-23 -33 -25 -35 -1 -2 -18 4 -38 12 -35 14 -35 15 -30 63 6 48 5 49 -49 102
-55 53 -56 54 -102 48 -46 -7 -46 -6 -61 30 -15 34 -14 37 2 46 52 29 61 50
59 127 -2 72 -3 75 -40 105 l-37 32 16 32 c16 31 19 32 61 26 42 -7 45 -5 100
46 l57 54 -5 51 c-5 48 -4 51 21 61 42 17 50 15 66 -16z"/>
<path d="M392 699 c-138 -68 -164 -258 -51 -366 91 -86 228 -84 316 4 114 114
78 306 -69 367 -54 23 -144 20 -196 -5z m174 -60 c58 -28 88 -78 88 -145 0
-155 -204 -214 -291 -84 -16 23 -23 48 -23 82 0 59 19 99 62 131 55 42 103 46
164 16z"/>
</g>
</svg>
